<?xml version="1.0" standalone="no"?>
<!DOCTYPE svg PUBLIC "-//W3C//DTD SVG 20010904//EN"
 "http://www.w3.org/TR/2001/REC-SVG-20010904/DTD/svg10.dtd">
<svg version="1.0" xmlns="http://www.w3.org/2000/svg"
 width="300.000000pt" height="249.000000pt" viewBox="0 0 300.000000 249.000000"
 preserveAspectRatio="xMidYMid meet">
<metadata>
Created by potrace 1.10, written by Peter Selinger 2001-2011
</metadata>
<g transform="translate(0.000000,249.000000) scale(0.100000,-0.100000)"
fill="#a52a2a" stroke="none">
<path d="M1620 2383 c-561 -46 -1132 -341 -1403 -724 -61 -87 -130 -233 -157
-334 -30 -115 -39 -326 -16 -426 76 -343 404 -585 959 -710 542 -121 1020 -87
1367 98 100 53 248 163 312 231 111 118 198 267 242 413 34 112 32 136 -3 34
-131 -377 -455 -631 -941 -737 -95 -20 -131 -22 -365 -22 -237 0 -273 3 -408
27 -361 65 -603 148 -793 272 -184 120 -286 247 -344 430 -34 105 -32 281 4
388 100 299 360 564 741 754 287 144 550 213 886 231 l124 7 6 38 6 37 -86 -2
c-47 -1 -106 -3 -131 -5z m88 -40 c-16 -2 -40 -2 -55 0 -16 2 -3 4 27 4 30 0
43 -2 28 -4z m-1146 -1960 c26 -13 50 -23 52 -23 3 0 17 -5 33 -11 15 -6 29
-10 31 -10 1 1 15 -5 30 -12 56 -29 323 -97 481 -123 18 -3 43 -8 55 -10 72
-14 233 -26 368 -28 89 0 153 -5 148 -10 -8 -8 -352 -2 -420 8 -19 3 -57 8
-85 11 -72 8 -195 34 -305 62 -52 14 -111 29 -130 34 -49 12 -108 34 -116 42
-4 4 -15 7 -24 7 -18 0 -200 86 -200 95 0 6 20 -2 82 -32z"/>
<path d="M1780 2149 c-175 -20 -399 -83 -572 -162 -67 -31 -76 -38 -81 -67 -4
-18 -7 -36 -7 -41 0 -4 37 10 83 31 122 57 275 107 416 137 163 34 406 38 541
9 324 -70 594 -265 720 -521 60 -124 74 -188 74 -350 0 -111 2 -131 9 -95 5
25 9 99 9 165 1 144 -16 222 -76 350 -88 186 -238 331 -451 435 -213 103 -418
137 -665 109z m220 -29 c0 -5 -15 -9 -32 -9 l-33 1 30 8 c17 4 31 8 33 9 1 0
2 -3 2 -9z m-162 -7 c-10 -2 -26 -2 -35 0 -10 3 -2 5 17 5 19 0 27 -2 18 -5z
m312 -8 c89 -15 260 -72 260 -85 0 -5 -33 5 -74 20 -41 16 -91 32 -112 36 -22
5 -41 9 -44 9 -14 4 -98 17 -123 19 -15 2 -31 6 -34 10 -10 10 37 7 127 -9z"/>
<path d="M425 1458 c-2 -7 -16 -60 -31 -118 -31 -119 -54 -179 -77 -198 -28
-23 -37 17 -37 163 0 88 -4 134 -10 130 -5 -3 -10 -14 -10 -24 0 -39 -73 -280
-105 -346 -33 -70 -37 -98 -8 -60 28 37 55 108 84 219 l29 111 -6 -91 c-8
-112 -2 -134 35 -134 45 0 66 32 102 160 l18 65 -7 -75 c-10 -108 -6 -173 12
-208 18 -36 52 -62 79 -62 16 0 14 4 -10 28 -49 45 -56 85 -51 279 5 161 4
192 -7 161z"/>
<path d="M1853 1430 c-35 -21 -63 -67 -63 -102 1 -44 28 -73 112 -118 96 -52
118 -82 97 -131 -16 -40 -56 -59 -122 -59 -40 0 -61 6 -81 21 -29 23 -35 69
-11 89 8 7 12 17 8 23 -10 16 -43 -31 -43 -62 0 -53 57 -91 137 -91 85 0 143
49 143 122 0 50 -23 74 -111 118 -95 48 -116 74 -99 124 19 58 109 84 157 45
15 -14 17 -72 3 -100 -8 -15 -7 -19 3 -19 25 0 37 83 17 120 -10 19 -59 40
-94 40 -12 0 -35 -9 -53 -20z"/>
<path d="M1423 1415 c-24 -16 -38 -55 -48 -126 -6 -43 -8 -45 -34 -41 -45 6
-83 -33 -88 -94 -5 -58 11 -86 51 -86 15 0 37 9 50 21 20 19 24 20 29 7 9 -23
53 -20 71 6 9 12 17 20 18 17 2 -2 8 -13 14 -24 16 -28 57 -41 88 -27 14 6 36
33 51 61 28 56 29 61 16 61 -5 0 -14 -15 -20 -33 -23 -69 -87 -102 -111 -58
-14 26 -13 42 3 39 26 -5 55 14 68 44 12 28 11 32 -10 49 -35 29 -72 5 -101
-66 -26 -65 -53 -86 -70 -55 -9 17 -6 31 14 75 24 50 56 161 56 196 0 8 -6 23
-13 32 -11 16 -14 16 -34 2z m24 -57 c-3 -29 -16 -84 -28 -123 -19 -57 -24
-65 -27 -42 -4 32 14 154 28 191 17 47 33 31 27 -26z m-93 -124 c12 -5 16 -20
16 -59 0 -46 -4 -56 -27 -75 -31 -24 -44 -22 -60 11 -16 33 0 93 30 114 25 17
21 17 41 9z m214 -27 c5 -23 -25 -57 -50 -57 -22 0 -24 27 -2 58 18 26 47 25
52 -1z"/>
<path d="M2536 1336 c-9 -19 -16 -41 -16 -50 0 -19 -22 -21 -52 -5 -16 9 -19
8 -16 -2 3 -8 15 -16 29 -19 19 -5 25 -13 27 -42 4 -47 -32 -121 -56 -116 -14
3 -16 13 -14 61 3 47 1 58 -14 64 -12 4 -26 -3 -45 -25 l-28 -31 -3 32 c-2 25
-8 33 -26 35 -19 3 -27 -6 -54 -68 -22 -50 -36 -70 -47 -68 -12 3 -15 14 -14
41 3 43 -12 50 -22 10 -15 -60 -69 -85 -81 -38 -10 41 5 92 33 115 15 11 31
19 37 17 19 -6 19 -40 0 -54 -10 -7 -14 -16 -10 -20 10 -11 48 36 44 55 -9 45
-75 38 -112 -11 -28 -38 -29 -113 -2 -133 27 -20 52 -18 74 7 17 18 20 18 26
4 3 -10 15 -15 28 -13 17 2 32 21 57 76 19 39 39 72 44 72 9 0 5 -102 -4 -139
-2 -7 1 -15 6 -17 6 -3 16 15 22 39 12 45 47 97 65 97 7 0 8 -19 4 -53 -6 -43
-4 -56 9 -67 20 -17 60 0 70 29 8 26 25 27 25 3 0 -21 30 -52 49 -52 6 0 23
11 35 24 23 22 25 23 40 5 9 -11 20 -19 25 -19 21 0 62 45 72 81 7 21 15 39
19 39 14 0 42 -66 39 -90 -3 -20 -10 -25 -32 -25 -36 1 -29 -19 9 -22 35 -3
65 20 93 73 23 42 26 54 13 54 -4 0 -13 -15 -20 -33 -6 -18 -19 -42 -27 -52
-15 -20 -16 -20 -14 0 3 40 -2 54 -26 83 -15 18 -25 42 -25 62 0 45 -25 33
-27 -13 -1 -47 -42 -131 -65 -135 -26 -5 -32 38 -15 98 20 69 0 60 -27 -13
-23 -63 -51 -100 -69 -94 -7 2 -18 23 -26 46 -12 38 -12 47 2 76 13 26 24 34
54 40 41 6 71 21 62 29 -3 3 -22 0 -42 -6 -20 -6 -39 -9 -42 -7 -2 3 0 22 6
42 17 64 -17 81 -45 23z m29 -23 c-8 -44 -25 -68 -25 -36 0 26 17 73 26 73 3
0 3 -17 -1 -37z"/>
<path d="M2665 1350 c-9 -15 3 -30 24 -30 23 0 31 9 24 26 -6 16 -39 19 -48 4z"/>
<path d="M1037 1306 c-15 -12 -27 -25 -27 -29 0 -9 56 19 65 32 12 20 -11 18
-38 -3z"/>
<path d="M560 1237 c-50 -25 -66 -104 -29 -151 43 -54 111 -20 145 72 24 65
35 78 47 57 8 -15 6 -40 -9 -117 -4 -20 -2 -28 9 -28 9 0 16 15 20 45 9 61 33
115 51 115 18 0 21 -42 7 -102 -7 -29 -6 -38 4 -38 7 0 16 17 20 37 8 45 32
93 45 93 12 0 12 -5 14 -85 1 -53 3 -60 22 -63 14 -2 29 7 43 24 12 15 22 25
24 23 1 -2 7 -13 13 -24 16 -28 57 -41 88 -27 14 6 36 33 51 61 28 56 29 61
16 61 -5 0 -14 -15 -20 -33 -23 -69 -87 -102 -111 -58 -14 26 -13 42 3 40 34
-4 49 4 64 37 17 35 17 36 -6 55 -35 28 -67 6 -105 -72 -18 -38 -38 -65 -49
-67 -16 -3 -18 3 -15 58 2 50 0 64 -14 74 -14 8 -23 8 -38 -1 -16 -11 -21 -10
-30 7 -15 27 -36 25 -57 -6 -17 -26 -17 -26 -25 -4 -13 37 -41 19 -73 -47 -16
-33 -36 -68 -44 -77 -16 -19 -52 -21 -69 -4 -16 16 -15 49 1 42 7 -2 25 5 40
16 53 42 24 115 -33 87z m48 -30 c5 -25 -26 -57 -55 -57 -21 0 -23 3 -17 23
15 52 64 75 72 34z m460 0 c5 -23 -25 -57 -50 -57 -22 0 -24 27 -2 58 18 26
47 25 52 -1z"/>
</g>
</svg>
